<svg width="1919" height="60" viewBox="0 0 1919 60" fill="none" xmlns="http://www.w3.org/2000/svg">
<rect width="1920" height="60" fill="#D9D9D9"/>
<rect y="30" width="30" height="30" fill="#FEFBF4"/>
<rect x="30" width="30" height="30" fill="#FEFBF4"/>
<rect width="30" height="30" fill="#D94F2A"/>
<rect x="30" y="30" width="30" height="30" fill="#D94F2A"/>
<rect x="180" y="30" width="30" height="30" fill="#FEFBF4"/>
<rect x="210" width="30" height="30" fill="#FEFBF4"/>
<rect x="180" width="30" height="30" fill="#D94F2A"/>
<rect x="210" y="30" width="30" height="30" fill="#D94F2A"/>
<rect x="120" y="30" width="30" height="30" fill="#FEFBF4"/>
<rect x="150" width="30" height="30" fill="#FEFBF4"/>
<rect x="120" width="30" height="30" fill="#D94F2A"/>
<rect x="150" y="30" width="30" height="30" fill="#D94F2A"/>
<rect x="60" y="30" width="30" height="30" fill="#FEFBF4"/>
<rect x="90" width="30" height="30" fill="#FEFBF4"/>
<rect x="60" width="30" height="30" fill="#D94F2A"/>
<rect x="90" y="30" width="30" height="30" fill="#D94F2A"/>
<rect x="720" y="30" width="30" height="30" fill="#FEFBF4"/>
<rect x="750" width="30" height="30" fill="#FEFBF4"/>
<rect x="720" width="30" height="30" fill="#D94F2A"/>
<rect x="750" y="30" width="30" height="30" fill="#D94F2A"/>
<rect x="900" y="30" width="30" height="30" fill="#FEFBF4"/>
<rect x="930" width="30" height="30" fill="#FEFBF4"/>
<rect x="900" width="30" height="30" fill="#D94F2A"/>
<rect x="930" y="30" width="30" height="30" fill="#D94F2A"/>
<rect x="840" y="30" width="30" height="30" fill="#FEFBF4"/>
<rect x="870" width="30" height="30" fill="#FEFBF4"/>
<rect x="840" width="30" height="30" fill="#D94F2A"/>
<rect x="870" y="30" width="30" height="30" fill="#D94F2A"/>
<rect x="780" y="30" width="30" height="30" fill="#FEFBF4"/>
<rect x="810" width="30" height="30" fill="#FEFBF4"/>
<rect x="780" width="30" height="30" fill="#D94F2A"/>
<rect x="810" y="30" width="30" height="30" fill="#D94F2A"/>
<rect x="480" y="30" width="30" height="30" fill="#FEFBF4"/>
<rect x="510" width="30" height="30" fill="#FEFBF4"/>
<rect x="480" width="30" height="30" fill="#D94F2A"/>
<rect x="510" y="30" width="30" height="30" fill="#D94F2A"/>
<rect x="660" y="30" width="30" height="30" fill="#FEFBF4"/>
<rect x="690" width="30" height="30" fill="#FEFBF4"/>
<rect x="660" width="30" height="30" fill="#D94F2A"/>
<rect x="690" y="30" width="30" height="30" fill="#D94F2A"/>
<rect x="600" y="30" width="30" height="30" fill="#FEFBF4"/>
<rect x="630" width="30" height="30" fill="#FEFBF4"/>
<rect x="600" width="30" height="30" fill="#D94F2A"/>
<rect x="630" y="30" width="30" height="30" fill="#D94F2A"/>
<rect x="540" y="30" width="30" height="30" fill="#FEFBF4"/>
<rect x="570" width="30" height="30" fill="#FEFBF4"/>
<rect x="540" width="30" height="30" fill="#D94F2A"/>
<rect x="570" y="30" width="30" height="30" fill="#D94F2A"/>
<rect x="1200" y="30" width="30" height="30" fill="#FEFBF4"/>
<rect x="1230" width="30" height="30" fill="#FEFBF4"/>
<rect x="1200" width="30" height="30" fill="#D94F2A"/>
<rect x="1230" y="30" width="30" height="30" fill="#D94F2A"/>
<rect x="1380" y="30" width="30" height="30" fill="#FEFBF4"/>
<rect x="1410" width="30" height="30" fill="#FEFBF4"/>
<rect x="1380" width="30" height="30" fill="#D94F2A"/>
<rect x="1410" y="30" width="30" height="30" fill="#D94F2A"/>
<rect x="1320" y="30" width="30" height="30" fill="#FEFBF4"/>
<rect x="1350" width="30" height="30" fill="#FEFBF4"/>
<rect x="1320" width="30" height="30" fill="#D94F2A"/>
<rect x="1350" y="30" width="30" height="30" fill="#D94F2A"/>
<rect x="1260" y="30" width="30" height="30" fill="#FEFBF4"/>
<rect x="1290" width="30" height="30" fill="#FEFBF4"/>
<rect x="1260" width="30" height="30" fill="#D94F2A"/>
<rect x="1290" y="30" width="30" height="30" fill="#D94F2A"/>
<rect x="1680" y="30" width="30" height="30" fill="#FEFBF4"/>
<rect x="1710" width="30" height="30" fill="#FEFBF4"/>
<rect x="1680" width="30" height="30" fill="#D94F2A"/>
<rect x="1710" y="30" width="30" height="30" fill="#D94F2A"/>
<rect x="1860" y="30" width="30" height="30" fill="#FEFBF4"/>
<rect x="1890" width="30" height="30" fill="#FEFBF4"/>
<rect x="1860" width="30" height="30" fill="#D94F2A"/>
<rect x="1890" y="30" width="30" height="30" fill="#D94F2A"/>
<rect x="1800" y="30" width="30" height="30" fill="#FEFBF4"/>
<rect x="1830" width="30" height="30" fill="#FEFBF4"/>
<rect x="1800" width="30" height="30" fill="#D94F2A"/>
<rect x="1830" y="30" width="30" height="30" fill="#D94F2A"/>
<rect x="1740" y="30" width="30" height="30" fill="#FEFBF4"/>
<rect x="1770" width="30" height="30" fill="#FEFBF4"/>
<rect x="1740" width="30" height="30" fill="#D94F2A"/>
<rect x="1770" y="30" width="30" height="30" fill="#D94F2A"/>
<rect x="1440" y="30" width="30" height="30" fill="#FEFBF4"/>
<rect x="1470" width="30" height="30" fill="#FEFBF4"/>
<rect x="1440" width="30" height="30" fill="#D94F2A"/>
<rect x="1470" y="30" width="30" height="30" fill="#D94F2A"/>
<rect x="1620" y="30" width="30" height="30" fill="#FEFBF4"/>
<rect x="1650" width="30" height="30" fill="#FEFBF4"/>
<rect x="1620" width="30" height="30" fill="#D94F2A"/>
<rect x="1650" y="30" width="30" height="30" fill="#D94F2A"/>
<rect x="1560" y="30" width="30" height="30" fill="#FEFBF4"/>
<rect x="1590" width="30" height="30" fill="#FEFBF4"/>
<rect x="1560" width="30" height="30" fill="#D94F2A"/>
<rect x="1590" y="30" width="30" height="30" fill="#D94F2A"/>
<rect x="1500" y="30" width="30" height="30" fill="#FEFBF4"/>
<rect x="1530" width="30" height="30" fill="#FEFBF4"/>
<rect x="1500" width="30" height="30" fill="#D94F2A"/>
<rect x="1530" y="30" width="30" height="30" fill="#D94F2A"/>
<rect x="960" y="30" width="30" height="30" fill="#FEFBF4"/>
<rect x="990" width="30" height="30" fill="#FEFBF4"/>
<rect x="960" width="30" height="30" fill="#D94F2A"/>
<rect x="990" y="30" width="30" height="30" fill="#D94F2A"/>
<rect x="1140" y="30" width="30" height="30" fill="#FEFBF4"/>
<rect x="1170" width="30" height="30" fill="#FEFBF4"/>
<rect x="1140" width="30" height="30" fill="#D94F2A"/>
<rect x="1170" y="30" width="30" height="30" fill="#D94F2A"/>
<rect x="1080" y="30" width="30" height="30" fill="#FEFBF4"/>
<rect x="1110" width="30" height="30" fill="#FEFBF4"/>
<rect x="1080" width="30" height="30" fill="#D94F2A"/>
<rect x="1110" y="30" width="30" height="30" fill="#D94F2A"/>
<rect x="1020" y="30" width="30" height="30" fill="#FEFBF4"/>
<rect x="1050" width="30" height="30" fill="#FEFBF4"/>
<rect x="1020" width="30" height="30" fill="#D94F2A"/>
<rect x="1050" y="30" width="30" height="30" fill="#D94F2A"/>
<rect x="240" y="30" width="30" height="30" fill="#FEFBF4"/>
<rect x="270" width="30" height="30" fill="#FEFBF4"/>
<rect x="240" width="30" height="30" fill="#D94F2A"/>
<rect x="270" y="30" width="30" height="30" fill="#D94F2A"/>
<rect x="420" y="30" width="30" height="30" fill="#FEFBF4"/>
<rect x="450" width="30" height="30" fill="#FEFBF4"/>
<rect x="420" width="30" height="30" fill="#D94F2A"/>
<rect x="450" y="30" width="30" height="30" fill="#D94F2A"/>
<rect x="360" y="30" width="30" height="30" fill="#FEFBF4"/>
<rect x="390" width="30" height="30" fill="#FEFBF4"/>
<rect x="360" width="30" height="30" fill="#D94F2A"/>
<rect x="390" y="30" width="30" height="30" fill="#D94F2A"/>
<rect x="300" y="30" width="30" height="30" fill="#FEFBF4"/>
<rect x="330" width="30" height="30" fill="#FEFBF4"/>
<rect x="300" width="30" height="30" fill="#D94F2A"/>
<rect x="330" y="30" width="30" height="30" fill="#D94F2A"/>
</svg>
